:SAMPLES-PER-SECOND 30
:FULLY-SPECIFIED
:DEGREES
821
root  3.97734 29.0458 0.17747 146.111 37.3441 -119.211
Spine  -14.3339 -27.0381 14.6021
Spine1  -16.7322 16.8361 -38.4147
Neck  3.97569e-016 0 -2.38542e-015
Head  -11.1574 -29.8701 29.8528
R_Clavicle  2.27103 6.11356 9.64874
R_UpperArm  96.7343 -6.2829 48.8419
R_Forearm  -7.86215 11.0193 -9.33369
R_Hand  -33.6361 20.2727 -122.764
L_Clavicle  -2.75357 -17.9218 11.1107
L_UpperArm  -90.5137 -57.9761 45.251
L_Forearm  16.718 22.1705 28.0502
L_Hand  -0.540316 -2.70653 -21.2796
L_Thigh  2.42569 46.1781 54.5035
L_Calf  -10.9603 -5.85425 45.2053
L_Foot  5.64699 11.3808 9.32015
L_Toe0  0.505156 0.034446 -6.1361
R_Thigh  3.53617 -44.7244 -2.01659
R_Calf  6.96415 -11.5639 -39.3788
R_Foot  0.693489 4.87666 10.2427
R_Toe0  -1.78853 -0.272788 -17.3235
822
root  3.51286 28.1235 -0.375649 148.523 38.0636 -119.773
Spine  -18.0481 -30.1335 14.8523
Spine1  -20.9542 21.3742 -38.4087
Neck  3.97569e-016 0 -2.38542e-015
Head  -5.55544 -30.8541 28.7931
R_Clavicle  1.29317 3.2162 6.03591
R_UpperArm  94.5596 -1.6852 45.9288
R_Forearm  -9.79268 6.04548 -5.06789
R_Hand  -32.0185 17.1535 -126.476
L_Clavicle  -2.29016 -17.1397 9.63615
L_UpperArm  -74.1477 -65.4036 24.4871
L_Forearm  15.617 19.5784 24.2438
L_Hand  -0.555605 -2.59961 -21.1211
L_Thigh  1.44223 45.3357 53.2477
L_Calf  -9.78814 -5.29153 41.1118
L_Foot  5.869 11.7466 9.64788
L_Toe0  0.505156 0.034446 -6.1361
R_Thigh  6.38254 -41.8272 -4.31679
R_Calf  6.11857 -11.5552 -39.3346
R_Foot  1.27323 6.44619 10.8463
R_Toe0  -1.78853 -0.272788 -17.3235
823
root  2.88321 27.2627 -1.00041 151.122 38.9325 -119.038
Spine  -20.0922 -30.3956 14.7159
Spine1  -23.326 22.9901 -37.8703
Neck  3.97569e-016 0 -2.38542e-015
Head  1.04321 -32.6179 25.0058
R_Clavicle  0.971309 1.00527 4.81952
R_UpperArm  94.7346 -0.254055 40.6099
R_Forearm  -13.8226 6.73013 -5.64548
R_Hand  -31.2096 16.2827 -127.061
L_Clavicle  -0.856704 -13.8717 4.7572
L_UpperArm  -49.9221 -68.3707 -1.34483
L_Forearm  17.9412 17.6539 21.5559
L_Hand  -0.390432 -3.39361 -20.3224
L_Thigh  -1.38874 44.7366 48.562
L_Calf  -9.92327 -4.62864 35.2957
L_Foot  6.2265 12.7017 9.79153
L_Toe0  0.505156 0.034446 -6.1361
R_Thigh  9.11564 -40.7232 -7.35455
R_Calf  6.12771 -11.1439 -37.639
R_Foot  1.5885 7.23029 10.8224
R_Toe0  -1.78853 -0.272788 -17.3235
824
root  2.10764 26.42 -1.66004 153.237 39.4013 -117.959
Spine  -20.2866 -29.3839 13.0072
Spine1  -23.9448 23.2098 -36.3345
Neck  3.97569e-016 0 -2.38542e-015
Head  6.58474 -33.921 22.1575
R_Clavicle  0.910828 -2.10541 4.88188
R_UpperArm  96.2071 -0.460714 35.4352
R_Forearm  -15.9218 11.3765 -9.64281
R_Hand  -29.4257 15.4743 -125.535
L_Clavicle  0.0429843 -10.5508 1.11992
L_UpperArm  -29.3604 -66.2164 -24.5068
L_Forearm  22.0385 16.3895 19.8481
L_Hand  -0.547218 -2.18613 -18.1039
L_Thigh  -2.96913 44.05 42.1548
L_Calf  -11.0682 -3.88141 28.7951
L_Foot  6.68643 13.6619 10.2298
L_Toe0  0.505156 0.034446 -6.1361
R_Thigh  10.3299 -40.7801 -11.0096
R_Calf  5.70703 -10.497 -35.0591
R_Foot  1.54015 6.94703 9.61178
R_Toe0  -1.78853 -0.272788 -17.3235
825
root  1.32973 25.3341 -2.31492 154.23 38.9084 -118.182
Spine  -19.9708 -28.5387 10.0051
Spine1  -24.2078 23.2121 -35.0948
Neck  3.97569e-016 0 -2.38542e-015
Head  11.2056 -34.7421 21.1681
R_Clavicle  0.823053 -6.1144 4.92657
R_UpperArm  97.3018 -3.19437 32.1091
R_Forearm  -18.7105 18.3768 -16.0415
R_Hand  -26.907 14.8208 -121.771
L_Clavicle  0.448525 -10.494 -0.718822
L_UpperArm  -15.0224 -62.5413 -42.2156
L_Forearm  23.7338 16.4922 19.9857
L_Hand  -0.730173 0.000265751 -16.2736
L_Thigh  -2.76854 42.457 36.2111
L_Calf  -11.8246 -3.14191 22.8121
L_Foot  7.0131 14.0287 10.8353
L_Toe0  0.505156 0.034446 -6.1361
R_Thigh  9.5943 -40.4006 -13.6476
R_Calf  4.65293 -9.94218 -32.9163
R_Foot  1.32339 6.26413 8.75927
R_Toe0  -1.78853 -0.272788 -17.3235
